<?xml version="1.0" encoding="UTF-8"?>
<svg width="256" height="256" viewBox="0 0 256 256" fill="none" xmlns="http://www.w3.org/2000/svg">
  <rect width="256" height="256" rx="64" fill="#4A90E2" fill-opacity="0.1"/>
  <path d="M128 64C93.49 64 64 93.49 64 128C64 162.5 93.49 192 128 192C162.5 192 192 162.5 192 128C192 93.49 162.5 64 128 64ZM128 176C99.72 176 80 156.3 80 128C80 99.72 99.72 80 128 80C156.3 80 176 99.72 176 128C176 156.3 156.3 176 128 176Z" fill="#4A90E2"/>
  <path d="M128 96C110.3 96 96 110.3 96 128C96 145.7 110.3 160 128 160C145.7 160 160 145.7 160 128C160 110.3 145.7 96 128 96ZM128 144C117 144 108 135 108 124C108 113 117 104 128 104C139 104 148 113 148 124C148 135 139 144 128 144Z" fill="#4A90E2"/>
  <path d="M128 112C119.2 112 112 119.2 112 128C112 136.8 119.2 144 128 144C136.8 144 144 136.8 144 128C144 119.2 136.8 112 128 112Z" fill="#4A90E2"/>
  <path d="M168 116C174.627 116 180 110.627 180 104C180 97.3726 174.627 92 168 92C161.373 92 156 97.3726 156 104C156 110.627 161.373 116 168 116Z" fill="#4A90E2"/>
  <path d="M128 56C90.98 56 60 86.98 60 124V132H68V124C68 91.4 95.4 64 128 64C160.6 64 188 91.4 188 124V132H196V124C196 86.98 165 56 128 56Z" fill="#4A90E2"/>
</svg>
